<?xml version="1.0" encoding="UTF-8"?>
<svg width="143px" height="169px" viewBox="0 0 143 169" version="1.1" xmlns="http://www.w3.org/2000/svg" xmlns:xlink="http://www.w3.org/1999/xlink">
    <!-- Generator: Sketch 52.2 (67145) - http://www.bohemiancoding.com/sketch -->
    <title>Share&amp;ManageTeam@3x</title>
    <desc>Created with Sketch.</desc>
    <defs>
        <polygon id="path-1" points="0.0191755728 0.139250479 44.6131472 0.139250479 44.6131472 44.749183 0.0191755728 44.749183"></polygon>
        <polygon id="path-3" points="0.260450526 0.288680086 25.3474246 0.288680086 25.3474246 54.9672943 0.260450526 54.9672943"></polygon>
    </defs>
    <g id="HomePage" stroke="none" stroke-width="1" fill="none" fill-rule="evenodd">
        <g id="DistroLandingV10" transform="translate(-521.000000, -2414.000000)">
            <g id="Share&amp;ManageTeam" transform="translate(521.000000, 2414.000000)">
                <path d="M91,51 L112,112" id="Stroke-1" stroke="#7DC2FF" stroke-width="1.706" stroke-dasharray="7.96,7.96"></path>
                <path d="M45,99 L59,49" id="Stroke-2" stroke="#7DC2FF" stroke-width="1.706" stroke-dasharray="7.96,7.96"></path>
                <path d="M61,139 L83,148" id="Stroke-3" stroke="#7DC2FF" stroke-width="1.706" stroke-dasharray="7.96,7.96"></path>
                <polygon id="Fill-4" fill="#2A569F" points="9.08200456 104.332172 0 127.282634 9.08200456 139.90052 26.8364009 150 21.4987244 137.300106 31.1682916 131.799929 38.484328 113.311417 45 104.09948 27.2456036 94"></polygon>
                <polygon id="Fill-5" fill="#5D78B1" points="44.9998984 104 54 116.645526 44.9998984 139.645122 27.0001016 150 18 137.354474 27.0001016 114.354474"></polygon>
                <polygon id="Fill-6" fill="#003D87" points="9.13736994 139.774869 27 150 17.8626301 137.225131 0 127"></polygon>
                <polygon id="Fill-7" fill="#FFFFFF" opacity="0.349999994" points="9 104.113888 26.9628906 114.190674 45 103.886112 27.2050685 94"></polygon>
                <g id="Group-62" transform="translate(27.000000, 0.000000)">
                    <path d="M1.78041684,124.901653 L11.4312098,119.327563 C11.805666,119.111358 12.1475607,119.097107 12.410087,119.248573 L15.2299046,120.877233 L13.9844309,122.804753 L13.9844309,128.091385 C13.9844309,129.193581 13.314887,130.473708 12.4886414,130.950499 L5.21890105,135.149593 L3.62135719,137.621493 L0.801539649,135.992832 C0.48488,135.810015 0.284627368,135.385342 0.284627368,134.782737 L0.284627368,127.760767 C0.284627368,126.658978 0.954171228,125.378851 1.78041684,124.901653" id="Fill-8" fill="#003D87"></path>
                    <path d="M14.2511902,131.968575 L4.60039719,137.542665 C4.22594105,137.75887 3.88404632,137.772714 3.62152,137.621248 C3.30486035,137.438431 3.10460772,137.014165 3.10460772,136.411153 L3.10460772,129.389591 C3.10460772,128.287395 3.77415158,127.007267 4.60039719,126.53007 L14.2511902,120.956386 C14.6256463,120.740181 14.9675411,120.725931 15.2300674,120.877396 C15.546727,121.060213 15.7469796,121.484886 15.7469796,122.087491 L15.7469796,129.109461 C15.7469796,130.21125 15.0774358,131.491377 14.2511902,131.968575" id="Fill-10" fill="#FFFFFF"></path>
                    <path d="M3.57471298,124.876816 L5.86093053,124.876816 L5.86093053,122.136188 C5.86093053,120.604433 7.03314105,118.583672 8.36937965,117.811687 C8.89199018,117.509977 9.24935158,117.501427 9.41093754,117.593446 C9.56723228,117.683837 9.73451649,117.990025 9.73451649,118.577972 L9.73451649,121.319007 L12.020734,121.319007 L12.020734,118.577972 C12.020734,117.232291 11.485913,116.151267 10.5538428,115.612995 C9.61688842,115.071465 8.40356912,115.150863 7.22647439,115.830828 C5.17836211,117.013643 3.57471298,119.78318 3.57471298,122.136188 L3.57471298,124.876816 Z" id="Fill-12" fill="#FFFFFF"></path>
                    <path d="M6.7951986,130.9926 C6.7951986,129.324851 7.97310737,127.29269 9.42575298,126.453523 C10.8783986,125.614763 12.0563074,126.286178 12.0563074,127.953926 C12.0563074,129.621675 10.8783986,131.653836 9.42575298,132.493003 C7.97310737,133.332171 6.7951986,132.660348 6.7951986,130.9926" id="Fill-14" fill="#7DC2FF"></path>
                    <polygon id="Fill-16" fill="#003D87" points="10.0005025 130.923952 8.85108491 131.588038 8.85108491 128.124284 10.0005025 127.460198"></polygon>
                    <path d="M5.52868211,124.411019 C5.97355228,124.667941 5.97151719,125.086099 5.52379789,125.344649 C5.07567158,125.603199 4.35199439,125.604828 3.90712421,125.347499 C3.46184702,125.090578 3.46428912,124.67242 3.91200842,124.41387 C4.35972772,124.15532 5.08381193,124.154098 5.52868211,124.411019" id="Fill-18" fill="#FFFFFF"></path>
                    <path d="M11.6884449,120.882282 C12.1333151,121.139203 12.13128,121.557362 11.6835607,121.815912 C11.2354344,122.074462 10.5117572,122.07609 10.066887,121.818762 C9.62160982,121.561841 9.62405193,121.143682 10.0717712,120.885132 C10.5194905,120.626582 11.2435747,120.625361 11.6884449,120.882282" id="Fill-20" fill="#FFFFFF"></path>
                    <g id="Group-24" transform="translate(26.863158, 0.000000)">
                        <mask id="mask-2" fill="white">
                            <use xlink:href="#path-1"></use>
                        </mask>
                        <g id="Clip-23"></g>
                        <path d="M43.848,16.6727204 C40.6614596,4.77657644 28.4383158,-2.28285281 16.5468912,0.904435932 C4.65505965,4.09213183 -2.40221754,16.3197082 0.784322807,28.2158522 C3.97086316,40.1119962 16.194007,47.1714254 28.0854316,43.9837295 C39.9772632,40.7964408 47.0345404,28.5688644 43.848,16.6727204" id="Fill-22" fill="#FD8083" mask="url(#mask-2)"></path>
                    </g>
                    <path d="M41.9005432,25.6336109 C44.262466,34.4515864 51.5908168,40.6067018 60.0673642,41.906373 C58.4881361,42.789107 56.7762204,43.4939099 54.9487116,43.9837295 C43.05688,47.1714254 30.8337361,40.1119962 27.6476028,28.2158522 C24.4610625,16.3197082 31.5183396,4.09213183 43.4097642,0.904435932 C46.4868168,0.0799265175 49.5850344,-0.0536236493 52.5440519,0.39995832 C43.845273,5.26191729 39.2036449,15.5656384 41.9005432,25.6336109" id="Fill-25" fill="#FD7170"></path>
                    <path d="M42.9439326,20.7131016 L52.5947256,15.1390108 C52.9691818,14.9228061 53.3110765,14.9085553 53.5736028,15.0600207 L56.3934204,16.6886813 L55.1479467,18.6162011 L55.1479467,23.9028333 C55.1479467,25.0050293 54.4784028,26.2851565 53.6521572,26.7619469 L46.3824168,30.961041 L44.784873,33.4329406 L41.9650554,31.8042801 C41.6483958,31.6214629 41.4481432,31.1967897 41.4481432,30.5941852 L41.4481432,23.5722152 C41.4481432,22.4704263 42.117687,21.1902991 42.9439326,20.7131016" id="Fill-27" fill="#003D87"></path>
                    <path d="M55.414706,27.7799819 L45.763913,33.3540727 C45.3894568,33.5702774 45.0475621,33.584121 44.7850358,33.4326556 C44.4683761,33.2498385 44.2681235,32.8255724 44.2681235,32.2225608 L44.2681235,25.2009979 C44.2681235,24.0988019 44.9376674,22.8186747 45.763913,22.3414771 L55.414706,16.7677935 C55.7891621,16.5515888 56.1310568,16.537338 56.3935832,16.6888034 C56.7102428,16.8716206 56.9104954,17.2962938 56.9104954,17.8988982 L56.9104954,24.9208683 C56.9104954,26.0226572 56.2409516,27.3027844 55.414706,27.7799819" id="Fill-29" fill="#FFFFFF"></path>
                    <path d="M44.7382288,20.6882238 L47.0244463,20.6882238 L47.0244463,17.9475952 C47.0244463,16.4158399 48.1966568,14.3950793 49.5328954,13.6230942 C50.055506,13.3213848 50.4128674,13.3128344 50.5744533,13.4048537 C50.7307481,13.4952444 50.8980323,13.8014325 50.8980323,14.389379 L50.8980323,17.1304148 L53.1842498,17.1304148 L53.1842498,14.389379 C53.1842498,13.0436982 52.6494288,11.9626748 51.7173586,11.4244024 C50.7804042,10.8828728 49.5670849,10.96227 48.3899902,11.6422358 C46.3418779,12.8250505 44.7382288,15.5945878 44.7382288,17.9475952 L44.7382288,20.6882238 Z" id="Fill-31" fill="#FFFFFF"></path>
                    <path d="M47.9587144,26.8040071 C47.9587144,25.1362587 49.1366232,23.1040974 50.5892688,22.2649301 C52.0419144,21.4261699 53.2198232,22.0975852 53.2198232,23.7653336 C53.2198232,25.433082 52.0419144,27.4652433 50.5892688,28.3044106 C49.1366232,29.143578 47.9587144,28.4717555 47.9587144,26.8040071" id="Fill-33" fill="#7DC2FF"></path>
                    <polygon id="Fill-35" fill="#003D87" points="51.1640182 26.735359 50.0146007 27.3994454 50.0146007 23.9356915 51.1640182 23.2716052"></polygon>
                    <path d="M46.6921979,20.2224676 C47.1370681,20.4793888 47.135033,20.8975474 46.6873137,21.1560972 C46.2391874,21.4146471 45.5155102,21.4162758 45.07064,21.1589474 C44.6253628,20.9020262 44.6278049,20.4838676 45.0755242,20.2253177 C45.5232435,19.9667679 46.2473277,19.9655464 46.6921979,20.2224676" id="Fill-37" fill="#FFFFFF"></path>
                    <path d="M52.85192,16.6936894 C53.2967902,16.9506106 53.2947551,17.3687692 52.8470358,17.6273191 C52.3989095,17.885869 51.6752323,17.8874976 51.2303621,17.6301693 C50.7850849,17.373248 50.787527,16.9550894 51.2352463,16.6965396 C51.6829656,16.4379897 52.4070498,16.4367682 52.85192,16.6936894" id="Fill-39" fill="#FFFFFF"></path>
                    <path d="M114.863119,157.465012 C111.887006,163.951967 101.729884,168.206842 90.6191186,168.15839 C88.5042554,168.149025 86.3507256,167.984123 84.2069642,167.650248 C70.8173081,165.559047 62.8373221,157.600597 66.3795958,149.879118 C66.848887,148.853062 90.6191186,113.490362 90.6191186,113.490362 L90.6240028,113.48059 C90.6240028,113.48059 114.514712,149.177572 115.022669,150.416576 L115.027554,150.426348 C115.951891,152.672678 115.961659,155.083095 114.863119,157.465012" id="Fill-41" fill="#53CEAE"></path>
                    <g id="Group-45" transform="translate(90.357895, 113.191910)">
                        <mask id="mask-4" fill="white">
                            <use xlink:href="#path-3"></use>
                        </mask>
                        <g id="Clip-44"></g>
                        <path d="M24.5064856,44.2747305 C21.5271172,50.7608712 11.3720295,55.0157469 0.260450526,54.9673035 L0.260450526,0.296823389 L0.264520702,0.288680086 C0.264520702,0.288680086 10.0777137,14.9506969 17.2615733,25.8097912 C21.2829067,31.8928385 24.4820646,36.7828918 24.6652225,37.2267018 L24.6692926,37.2348451 C25.5932225,39.4823967 25.605433,41.8928144 24.5064856,44.2747305" id="Fill-43" fill="#74D8BD" mask="url(#mask-4)"></path>
                    </g>
                    <path d="M107.619549,139.001701 L90.6184267,148.822524 L90.6184267,113.488733 L90.6224968,113.48059 C90.6224968,113.48059 100.43569,128.142607 107.619549,139.001701" id="Fill-46" fill="#74D8BD"></path>
                    <path d="M98.1338021,143.421845 L88.4830091,137.847754 C88.108553,137.63155 87.7666582,137.617299 87.5041319,137.768764 L84.6843144,139.397425 L85.9297881,141.324945 L85.9297881,146.611577 C85.9297881,147.713773 86.5993319,148.9939 87.4255775,149.47069 L94.6953179,153.669784 L96.2928618,156.141684 L99.1126793,154.513024 C99.4293389,154.330206 99.6295916,153.905533 99.6295916,153.302929 L99.6295916,146.280959 C99.6295916,145.17917 98.9600477,143.899043 98.1338021,143.421845" id="Fill-48" fill="#003D87"></path>
                    <path d="M85.6630695,150.488766 L95.3138625,156.062857 C95.6883186,156.279062 96.0302133,156.292905 96.2927396,156.14144 C96.6093993,155.958623 96.8096519,155.534357 96.8096519,154.931345 L96.8096519,147.909782 C96.8096519,146.807586 96.1401081,145.527459 95.3138625,145.050261 L85.6630695,139.476578 C85.2886133,139.260373 84.9467186,139.246122 84.6841923,139.397588 C84.3675326,139.580405 84.16728,140.005078 84.16728,140.607682 L84.16728,147.629652 C84.16728,148.731441 84.8368239,150.011569 85.6630695,150.488766" id="Fill-50" fill="#FFFFFF"></path>
                    <path d="M96.3395467,143.397008 L94.0533291,143.397008 L94.0533291,140.656379 C94.0533291,139.124624 92.8811186,137.103863 91.54488,136.331878 C91.0222695,136.030169 90.6649081,136.021619 90.5033221,136.113638 C90.3470274,136.204029 90.1797432,136.510217 90.1797432,137.098163 L90.1797432,139.839199 L87.8935256,139.839199 L87.8935256,137.098163 C87.8935256,135.752482 88.4283467,134.671459 89.3604168,134.133187 C90.2973712,133.591657 91.5106905,133.671054 92.6877853,134.35102 C94.7358975,135.533835 96.3395467,138.303372 96.3395467,140.656379 L96.3395467,143.397008 Z" id="Fill-52" fill="#FFFFFF"></path>
                    <path d="M93.1190204,149.512791 C93.1190204,147.845043 91.9411116,145.812882 90.488466,144.973714 C89.0358204,144.134954 87.8579116,144.806369 87.8579116,146.474118 C87.8579116,148.141866 89.0358204,150.174027 90.488466,151.013195 C91.9411116,151.852362 93.1190204,151.18054 93.1190204,149.512791" id="Fill-54" fill="#7DC2FF"></path>
                    <polygon id="Fill-56" fill="#003D87" points="89.9137572 149.444143 91.0631747 150.10823 91.0631747 146.644476 89.9137572 145.980389"></polygon>
                    <path d="M94.3855368,142.931211 C93.9406667,143.188132 93.9427018,143.606291 94.3904211,143.864841 C94.8385474,144.123391 95.5622246,144.125019 96.0070947,143.867691 C96.4523719,143.61077 96.4499298,143.192611 96.0022105,142.934061 C95.5544912,142.675511 94.830407,142.67429 94.3855368,142.931211" id="Fill-58" fill="#FFFFFF"></path>
                    <path d="M88.2258147,139.402474 C87.7809446,139.659395 87.7829796,140.077553 88.2306989,140.336103 C88.6788253,140.594653 89.4025025,140.596282 89.8473726,140.338953 C90.2926498,140.082032 90.2902077,139.663874 89.8424884,139.405324 C89.3947691,139.146774 88.6706849,139.145552 88.2258147,139.402474" id="Fill-60" fill="#FFFFFF"></path>
                </g>
            </g>
        </g>
    </g>
</svg>